# xmcd
#
# Track frame offsets: 
#        150
#        20270
#        40531
#
# Disc length: 785 seconds
#
# Revision: 0
# Processed by: cddbd v1.5.2PL0 Copyright (c) Steve Scherf et al.
# Submitted via: ExactAudioCopyFreeDBPlugin 1.0
#
DISCID=14030f03
DTITLE=Ciara - Like A Surgeon
DYEAR=2009
DGENRE=R&B
TTITLE0=Like A Surgeon (Main)
TTITLE1=Like A Surgeon (Instrumental)
TTITLE2=Like A Surgeon (Acappella)
EXTD=
EXTT0=
EXTT1=
EXTT2=
PLAYORDER=
